<?xml version="1.0" encoding="UTF-8"?>
<svg width="57px" height="22px" viewBox="0 0 57 22" version="1.1" xmlns="http://www.w3.org/2000/svg" xmlns:xlink="http://www.w3.org/1999/xlink">
    <!-- Generator: Sketch 46.2 (44496) - http://www.bohemiancoding.com/sketch -->
    <title>Logo</title>
    <desc>Created with Sketch.</desc>
    <defs></defs>
    <g id="Symbols-1" stroke="none" stroke-width="1" fill="none" fill-rule="evenodd">
        <g id="Footer" transform="translate(-57.000000, -40.000000)" fill="#00B5FF">
            <g transform="translate(57.000000, 40.000000)" id="Logo">
                <path d="M56.7563051,17.3704667 C56.7563051,20.8477762 53.58684,21.9671571 49.8375656,21.9671571 L42.2663749,21.9671571 L42.2663749,19.3669667 L49.9855005,19.3669667 C52.1955098,19.3536095 53.8355191,18.7187524 53.8355191,17.4587286 C53.8355191,16.5085381 52.9685888,15.8815381 50.9587423,15.6191095 L47.5957423,15.1335381 C44.3491284,14.6686571 42.5325516,13.7163714 42.5325516,11.4721095 C42.5325516,7.06477619 47.9565656,6.4935619 49.0390353,6.4935619 C55.0879284,6.4935619 56.1764958,9.47272857 56.5245935,10.483419 L53.4744307,10.483419 C52.465133,9.10999048 50.0965842,9.03168095 49.0149098,9.03168095 C47.159626,9.03168095 45.3374819,9.76999048 45.3374819,11.1245619 C45.3374819,11.7515619 45.6248679,12.2350381 48.4268819,12.5988238 L51.7511749,13.1247286 C54.9010214,13.6302048 56.7563051,14.9038476 56.7563051,17.3704667 L56.7563051,17.3704667 Z M37.5756726,0.000157142857 L37.5756726,0.00172857143 L39.0346074,0.00172857143 L39.0346074,1.6973 C39.0346074,2.47908571 38.3665144,2.87875238 37.6636912,2.87875238 C36.810547,2.87875238 36.2742167,2.20984762 36.2742167,1.41968095 C36.2742167,0.672204762 36.8094865,0.0410142857 37.5756726,0.000157142857 L37.5756726,0.000157142857 Z M36.2646726,21.9828714 L39.0216167,21.9828714 L39.0216167,6.51713333 L36.2646726,6.51713333 L36.2646726,21.9828714 Z M24.8172167,19.366181 L24.8172167,19.3724667 C22.0851935,19.2258 20.1774167,16.9770857 20.1774167,14.3127286 C20.1774167,11.4962048 22.08864,9.11260952 25.1284633,9.11260952 C27.6343423,9.11260952 30.0158819,10.5368476 30.0158819,13.3227286 L30.0158819,19.366181 L24.8172167,19.366181 Z M25.1907656,6.51241905 C20.3653842,6.51241905 17.4202074,9.85563333 17.4202074,14.0961333 C17.4202074,18.4594667 20.4905191,21.9888952 24.8153609,21.9888952 L24.8172167,21.9888952 L30.0158819,21.9888952 L30.8740633,21.9888952 L32.7733563,21.9888952 L32.7733563,13.5694429 C32.7733563,9.2983 29.8279144,6.51241905 25.1907656,6.51241905 L25.1907656,6.51241905 Z M7.77050512,19.3887048 C4.82559349,19.3887048 2.7574214,17.2536571 2.7574214,14.2197524 C2.7574214,11.3445619 4.49499349,9.36927619 7.16789581,9.13565714 L7.16789581,9.13827619 L12.5958865,9.13827619 L12.5958865,13.3227286 C12.5958865,17.408181 10.4028447,19.3887048 7.77050512,19.3887048 L7.77050512,19.3887048 Z M12.5958865,0.0122047619 L12.5958865,6.5155619 L7.16789581,6.5155619 C3.34359349,6.55484762 -5.30232558e-05,9.75715714 -5.30232558e-05,13.8798 C-5.30232558e-05,18.2750857 2.8828214,21.9888952 7.77050512,21.9888952 C12.188933,21.9888952 15.3533609,18.7074905 15.3533609,13.8174667 L15.3533609,0.0122047619 L12.5958865,0.0122047619 Z"></path>
            </g>
        </g>
    </g>
</svg>