<?xml version="1.0" encoding="UTF-8"?>
<svg width="75px" height="30px" viewBox="0 0 75 30" version="1.1" xmlns="http://www.w3.org/2000/svg" xmlns:xlink="http://www.w3.org/1999/xlink">
    <!-- Generator: Sketch 46.2 (44496) - http://www.bohemiancoding.com/sketch -->
    <title>Page 1</title>
    <desc>Created with Sketch.</desc>
    <defs></defs>
    <g id="Welcome" stroke="none" stroke-width="1" fill="none" fill-rule="evenodd">
        <g id="Home--1440-2000px" transform="translate(-685.000000, -18.000000)" fill="#162933">
            <g id="Top-Nav" transform="translate(35.000000, 18.000000)">
                <g id="Page-1" transform="translate(650.000000, 0.000000)">
                    <path d="M74.6723257,23.6845625 C74.6723257,28.4259032 70.5023682,29.9521885 65.5695754,29.9521885 L55.6084174,29.9521885 L55.6084174,26.406807 L65.7642083,26.406807 C68.6718424,26.3885944 70.8295468,25.5229614 70.8295468,23.8049084 C70.8295468,22.5093157 69.6889562,21.654396 67.0446695,21.2965724 L62.6200849,20.6344917 C58.3486253,20.0006226 55.9586171,18.7021731 55.9586171,15.6421032 C55.9586171,9.63266724 63.0948077,8.85381178 64.5189764,8.85381178 C72.4772991,8.85381178 73.9094903,12.9159305 74.3674705,14.2940154 L70.3544751,14.2940154 C69.0265765,12.4213341 65.9103574,12.3145584 64.4872352,12.3145584 C62.0463015,12.3145584 59.6489684,13.3212496 59.6489684,15.1682191 C59.6489684,16.0231388 60.0270724,16.6823627 63.7135869,17.1783875 L68.0872461,17.8954631 C72.231392,18.5846841 74.6723257,20.3213068 74.6723257,23.6845625 L74.6723257,23.6845625 Z M49.43702,0 L49.43702,0.00214265602 L51.356491,0.00214265602 L51.356491,2.3140685 C51.356491,3.38003987 50.4775037,3.92498872 49.5528231,3.92498872 C48.4303703,3.92498872 47.7247388,3.01293147 47.7247388,1.9355326 C47.7247388,0.916342558 48.4289751,0.0557090565 49.43702,0 L49.43702,0 Z M47.7121819,29.9736151 L51.3393996,29.9736151 L51.3393996,8.88595162 L47.7121819,8.88595162 L47.7121819,29.9736151 Z M32.6511538,26.4057357 L32.6511538,26.4143063 C29.0567237,26.2143251 26.5467268,23.1481843 26.5467268,19.515311 C26.5467268,15.6749572 29.0612582,12.4249051 33.0606502,12.4249051 C36.35755,12.4249051 39.4908606,14.3668657 39.4908606,18.1654377 L39.4908606,26.4057357 L32.6511538,26.4057357 Z M33.1426192,8.87952365 C26.7940291,8.87952365 22.9191603,13.4380243 22.9191603,19.2199816 C22.9191603,25.1694232 26.9586648,29.9818286 32.6487121,29.9818286 L32.6511538,29.9818286 L39.4908606,29.9818286 L40.6199406,29.9818286 L43.1187758,29.9818286 L43.1187758,18.5018347 C43.1187758,12.6780957 39.2435582,8.87952365 33.1426192,8.87952365 L33.1426192,8.87952365 Z M10.2233752,26.4364471 C6.34885521,26.4364471 3.62783155,23.5252918 3.62783155,19.3885372 C3.62783155,15.4681909 5.91389604,12.7748723 9.43054269,12.4563308 L9.43054269,12.4599019 L16.5719654,12.4599019 L16.5719654,18.1654377 C16.5719654,23.7359863 13.6866548,26.4364471 10.2233752,26.4364471 L10.2233752,26.4364471 Z M16.5719654,0.0164270295 L16.5719654,8.88380897 L9.43054269,8.88380897 C4.39903823,8.93737537 -8.37209302e-05,13.3037512 -8.37209302e-05,18.9250093 C-8.37209302e-05,24.9180182 3.79281607,29.9818286 10.2233752,29.9818286 C16.0365505,29.9818286 20.1998806,25.5076057 20.1998806,18.8400173 L20.1998806,0.0164270295 L16.5719654,0.0164270295 Z" id="Fill-1"></path>
                </g>
            </g>
        </g>
    </g>
</svg>